<mxfile host="app.diagrams.net" modified="2022-10-16T09:55:23.378Z" agent="5.0 (Macintosh; Intel Mac OS X 10_15_7) AppleWebKit/537.36 (KHTML, like Gecko) Chrome/106.0.0.0 Safari/537.36" etag="2D9jbd-aYGgO3dRWdefz" version="20.4.1" type="github">
  <diagram name="Page-1" id="9c096ad6-e400-ecc8-3e38-643d2caac077">
    <mxGraphModel dx="3008" dy="1956" grid="1" gridSize="10" guides="1" tooltips="1" connect="1" arrows="1" fold="1" page="1" pageScale="1.5" pageWidth="1169" pageHeight="826" background="none" math="0" shadow="0">
      <root>
        <mxCell id="0" style=";html=1;" />
        <mxCell id="1" style=";html=1;" parent="0" />
        <mxCell id="sBDTYE3ng_ILYUom7Yl2-1" value="&lt;font style=&quot;font-size: 25px;&quot;&gt;Event organising website&amp;nbsp;&lt;/font&gt;" style="rounded=1;whiteSpace=wrap;html=1;fillColor=#f8cecc;strokeColor=#b85450;" vertex="1" parent="1">
          <mxGeometry x="970" y="60" width="250" height="150" as="geometry" />
        </mxCell>
        <mxCell id="sBDTYE3ng_ILYUom7Yl2-2" value="&lt;span style=&quot;font-size: 25px;&quot;&gt;Authentication&lt;/span&gt;" style="rounded=1;whiteSpace=wrap;html=1;fillColor=#dae8fc;strokeColor=#6c8ebf;" vertex="1" parent="1">
          <mxGeometry x="390" y="390" width="250" height="150" as="geometry" />
        </mxCell>
        <mxCell id="sBDTYE3ng_ILYUom7Yl2-3" value="&lt;span style=&quot;font-size: 25px;&quot;&gt;Create account&lt;/span&gt;" style="rounded=1;whiteSpace=wrap;html=1;fillColor=#d5e8d4;strokeColor=#82b366;" vertex="1" parent="1">
          <mxGeometry x="60" y="720" width="250" height="150" as="geometry" />
        </mxCell>
        <mxCell id="sBDTYE3ng_ILYUom7Yl2-4" value="&lt;span style=&quot;font-size: 25px;&quot;&gt;Sign-in&lt;/span&gt;" style="rounded=1;whiteSpace=wrap;html=1;fillColor=#d5e8d4;strokeColor=#82b366;" vertex="1" parent="1">
          <mxGeometry x="390" y="720" width="250" height="150" as="geometry" />
        </mxCell>
        <mxCell id="sBDTYE3ng_ILYUom7Yl2-5" value="&lt;span style=&quot;font-size: 25px;&quot;&gt;Events&lt;/span&gt;" style="rounded=1;whiteSpace=wrap;html=1;fillColor=#dae8fc;strokeColor=#6c8ebf;" vertex="1" parent="1">
          <mxGeometry x="970" y="390" width="250" height="150" as="geometry" />
        </mxCell>
        <mxCell id="sBDTYE3ng_ILYUom7Yl2-6" value="&lt;span style=&quot;font-size: 25px;&quot;&gt;Services&lt;/span&gt;" style="rounded=1;whiteSpace=wrap;html=1;fillColor=#dae8fc;strokeColor=#6c8ebf;" vertex="1" parent="1">
          <mxGeometry x="1480" y="390" width="250" height="150" as="geometry" />
        </mxCell>
        <mxCell id="sBDTYE3ng_ILYUom7Yl2-7" value="&lt;span style=&quot;font-size: 25px;&quot;&gt;Add members&amp;nbsp;&lt;/span&gt;" style="rounded=1;whiteSpace=wrap;html=1;fillColor=#d5e8d4;strokeColor=#82b366;" vertex="1" parent="1">
          <mxGeometry x="970" y="1010" width="250" height="150" as="geometry" />
        </mxCell>
        <mxCell id="sBDTYE3ng_ILYUom7Yl2-8" value="&lt;span style=&quot;font-size: 25px;&quot;&gt;Add roles&lt;/span&gt;" style="rounded=1;whiteSpace=wrap;html=1;fillColor=#d5e8d4;strokeColor=#82b366;" vertex="1" parent="1">
          <mxGeometry x="970" y="1260" width="250" height="150" as="geometry" />
        </mxCell>
        <mxCell id="sBDTYE3ng_ILYUom7Yl2-9" value="&lt;span style=&quot;font-size: 25px;&quot;&gt;Reminders&lt;/span&gt;" style="rounded=1;whiteSpace=wrap;html=1;fillColor=#d5e8d4;strokeColor=#82b366;" vertex="1" parent="1">
          <mxGeometry x="1780" y="720" width="250" height="150" as="geometry" />
        </mxCell>
        <mxCell id="sBDTYE3ng_ILYUom7Yl2-10" value="&lt;span style=&quot;font-size: 25px;&quot;&gt;Two-way radio&lt;br&gt;(Walkie Walkie)&lt;br&gt;&lt;/span&gt;" style="rounded=1;whiteSpace=wrap;html=1;fillColor=#d5e8d4;strokeColor=#82b366;" vertex="1" parent="1">
          <mxGeometry x="2080" y="720" width="250" height="150" as="geometry" />
        </mxCell>
        <mxCell id="sBDTYE3ng_ILYUom7Yl2-11" value="&lt;span style=&quot;font-size: 25px;&quot;&gt;Online Stream platform&amp;nbsp;&lt;/span&gt;" style="rounded=1;whiteSpace=wrap;html=1;" vertex="1" parent="1">
          <mxGeometry x="2410" y="720" width="250" height="150" as="geometry" />
        </mxCell>
        <mxCell id="sBDTYE3ng_ILYUom7Yl2-12" value="&lt;span style=&quot;font-size: 25px;&quot;&gt;Render a &lt;br&gt;unique code&lt;/span&gt;" style="rounded=1;whiteSpace=wrap;html=1;fillColor=#d5e8d4;strokeColor=#82b366;" vertex="1" parent="1">
          <mxGeometry x="60" y="1000" width="250" height="150" as="geometry" />
        </mxCell>
        <mxCell id="sBDTYE3ng_ILYUom7Yl2-13" value="&lt;span style=&quot;font-size: 25px;&quot;&gt;For organisers&lt;/span&gt;" style="rounded=1;whiteSpace=wrap;html=1;fillColor=#d5e8d4;strokeColor=#82b366;" vertex="1" parent="1">
          <mxGeometry x="2290" y="1020" width="250" height="150" as="geometry" />
        </mxCell>
        <mxCell id="sBDTYE3ng_ILYUom7Yl2-14" value="&lt;span style=&quot;font-size: 25px;&quot;&gt;For guests&amp;nbsp;&lt;/span&gt;" style="rounded=1;whiteSpace=wrap;html=1;fillColor=#fff2cc;strokeColor=#d6b656;" vertex="1" parent="1">
          <mxGeometry x="2820" y="1020" width="250" height="150" as="geometry" />
        </mxCell>
        <mxCell id="sBDTYE3ng_ILYUom7Yl2-15" value="&lt;span style=&quot;font-size: 25px;&quot;&gt;Make &amp;amp; send&lt;br&gt;survey&lt;br&gt;(Forms and polls)&lt;br&gt;&lt;/span&gt;" style="rounded=1;whiteSpace=wrap;html=1;fillColor=#d5e8d4;strokeColor=#82b366;" vertex="1" parent="1">
          <mxGeometry x="2200" y="1840" width="250" height="150" as="geometry" />
        </mxCell>
        <mxCell id="sBDTYE3ng_ILYUom7Yl2-16" value="&lt;span style=&quot;font-size: 25px;&quot;&gt;Check-in&lt;br&gt;OR scan&amp;nbsp;&lt;br&gt;(Offline events only)&lt;br&gt;&lt;/span&gt;" style="rounded=1;whiteSpace=wrap;html=1;fillColor=#d5e8d4;strokeColor=#82b366;" vertex="1" parent="1">
          <mxGeometry x="1480" y="720" width="250" height="150" as="geometry" />
        </mxCell>
        <mxCell id="sBDTYE3ng_ILYUom7Yl2-18" value="&lt;span style=&quot;font-size: 25px;&quot;&gt;Create stream sessions&lt;br&gt;&lt;/span&gt;" style="rounded=1;whiteSpace=wrap;html=1;fillColor=#d5e8d4;strokeColor=#82b366;" vertex="1" parent="1">
          <mxGeometry x="2390" y="1290" width="250" height="150" as="geometry" />
        </mxCell>
        <mxCell id="sBDTYE3ng_ILYUom7Yl2-19" value="&lt;span style=&quot;font-size: 25px;&quot;&gt;Make password&lt;br&gt;(optional)&lt;br&gt;&lt;/span&gt;" style="rounded=1;whiteSpace=wrap;html=1;fillColor=#d5e8d4;strokeColor=#82b366;" vertex="1" parent="1">
          <mxGeometry x="2390" y="1530" width="250" height="150" as="geometry" />
        </mxCell>
        <mxCell id="sBDTYE3ng_ILYUom7Yl2-20" value="&lt;span style=&quot;font-size: 25px;&quot;&gt;Count session reactions&lt;br&gt;&lt;/span&gt;" style="rounded=1;whiteSpace=wrap;html=1;fillColor=#d5e8d4;strokeColor=#82b366;" vertex="1" parent="1">
          <mxGeometry x="2070" y="1290" width="250" height="150" as="geometry" />
        </mxCell>
        <mxCell id="sBDTYE3ng_ILYUom7Yl2-21" value="&lt;span style=&quot;font-size: 25px;&quot;&gt;Stream/&lt;br&gt;Share screen&lt;br&gt;&lt;/span&gt;" style="rounded=1;whiteSpace=wrap;html=1;fillColor=#d5e8d4;strokeColor=#82b366;" vertex="1" parent="1">
          <mxGeometry x="2505" y="1840" width="250" height="150" as="geometry" />
        </mxCell>
        <mxCell id="sBDTYE3ng_ILYUom7Yl2-22" value="&lt;span style=&quot;font-size: 25px;&quot;&gt;Access&lt;/span&gt;" style="rounded=1;whiteSpace=wrap;html=1;fillColor=#fff2cc;strokeColor=#d6b656;" vertex="1" parent="1">
          <mxGeometry x="2820" y="1530" width="250" height="150" as="geometry" />
        </mxCell>
        <mxCell id="sBDTYE3ng_ILYUom7Yl2-23" value="&lt;span style=&quot;font-size: 25px;&quot;&gt;React&lt;/span&gt;" style="rounded=1;whiteSpace=wrap;html=1;fillColor=#fff2cc;strokeColor=#d6b656;" vertex="1" parent="1">
          <mxGeometry x="2820" y="1830" width="250" height="150" as="geometry" />
        </mxCell>
        <mxCell id="sBDTYE3ng_ILYUom7Yl2-24" value="&lt;span style=&quot;font-size: 25px;&quot;&gt;Submit questions&lt;/span&gt;" style="rounded=1;whiteSpace=wrap;html=1;fillColor=#fff2cc;strokeColor=#d6b656;" vertex="1" parent="1">
          <mxGeometry x="3140" y="1830" width="250" height="150" as="geometry" />
        </mxCell>
        <mxCell id="sBDTYE3ng_ILYUom7Yl2-25" value="" style="endArrow=none;html=1;rounded=0;fontSize=25;entryX=0;entryY=1;entryDx=0;entryDy=0;exitX=1;exitY=0;exitDx=0;exitDy=0;" edge="1" parent="1" source="sBDTYE3ng_ILYUom7Yl2-2" target="sBDTYE3ng_ILYUom7Yl2-1">
          <mxGeometry width="50" height="50" relative="1" as="geometry">
            <mxPoint x="640" y="300" as="sourcePoint" />
            <mxPoint x="690" y="250" as="targetPoint" />
          </mxGeometry>
        </mxCell>
        <mxCell id="sBDTYE3ng_ILYUom7Yl2-26" value="" style="endArrow=none;html=1;rounded=0;fontSize=25;entryX=0.5;entryY=0;entryDx=0;entryDy=0;" edge="1" parent="1" source="sBDTYE3ng_ILYUom7Yl2-1" target="sBDTYE3ng_ILYUom7Yl2-5">
          <mxGeometry width="50" height="50" relative="1" as="geometry">
            <mxPoint x="845" y="280" as="sourcePoint" />
            <mxPoint x="845" y="300.71067811865476" as="targetPoint" />
          </mxGeometry>
        </mxCell>
        <mxCell id="sBDTYE3ng_ILYUom7Yl2-27" value="" style="endArrow=none;html=1;rounded=0;fontSize=25;exitX=0;exitY=0;exitDx=0;exitDy=0;" edge="1" parent="1" source="sBDTYE3ng_ILYUom7Yl2-6" target="sBDTYE3ng_ILYUom7Yl2-1">
          <mxGeometry width="50" height="50" relative="1" as="geometry">
            <mxPoint x="1160" y="340" as="sourcePoint" />
            <mxPoint x="1210" y="290" as="targetPoint" />
          </mxGeometry>
        </mxCell>
        <mxCell id="sBDTYE3ng_ILYUom7Yl2-28" value="" style="endArrow=none;html=1;rounded=0;fontSize=25;entryX=0.5;entryY=1;entryDx=0;entryDy=0;exitX=0.5;exitY=0;exitDx=0;exitDy=0;" edge="1" parent="1" source="sBDTYE3ng_ILYUom7Yl2-3" target="sBDTYE3ng_ILYUom7Yl2-2">
          <mxGeometry width="50" height="50" relative="1" as="geometry">
            <mxPoint x="-30" y="660" as="sourcePoint" />
            <mxPoint x="20" y="610" as="targetPoint" />
          </mxGeometry>
        </mxCell>
        <mxCell id="sBDTYE3ng_ILYUom7Yl2-29" value="" style="endArrow=none;html=1;rounded=0;fontSize=25;entryX=0.5;entryY=1;entryDx=0;entryDy=0;exitX=0.5;exitY=0;exitDx=0;exitDy=0;" edge="1" parent="1" source="sBDTYE3ng_ILYUom7Yl2-4" target="sBDTYE3ng_ILYUom7Yl2-2">
          <mxGeometry width="50" height="50" relative="1" as="geometry">
            <mxPoint x="90" y="590" as="sourcePoint" />
            <mxPoint x="140" y="540" as="targetPoint" />
          </mxGeometry>
        </mxCell>
        <mxCell id="sBDTYE3ng_ILYUom7Yl2-30" value="&lt;span style=&quot;font-size: 25px;&quot;&gt;IAM Check&lt;/span&gt;" style="rounded=1;whiteSpace=wrap;html=1;fillColor=#d5e8d4;strokeColor=#82b366;" vertex="1" parent="1">
          <mxGeometry x="390" y="1000" width="250" height="150" as="geometry" />
        </mxCell>
        <mxCell id="sBDTYE3ng_ILYUom7Yl2-31" value="" style="endArrow=none;html=1;rounded=0;fontSize=25;entryX=0.5;entryY=1;entryDx=0;entryDy=0;exitX=0.5;exitY=0;exitDx=0;exitDy=0;" edge="1" parent="1" source="sBDTYE3ng_ILYUom7Yl2-12" target="sBDTYE3ng_ILYUom7Yl2-3">
          <mxGeometry width="50" height="50" relative="1" as="geometry">
            <mxPoint x="-430" y="980" as="sourcePoint" />
            <mxPoint x="-380" y="930" as="targetPoint" />
          </mxGeometry>
        </mxCell>
        <mxCell id="sBDTYE3ng_ILYUom7Yl2-32" value="" style="endArrow=none;html=1;rounded=0;fontSize=25;entryX=0.5;entryY=1;entryDx=0;entryDy=0;exitX=0.5;exitY=0;exitDx=0;exitDy=0;" edge="1" parent="1" source="sBDTYE3ng_ILYUom7Yl2-30" target="sBDTYE3ng_ILYUom7Yl2-4">
          <mxGeometry width="50" height="50" relative="1" as="geometry">
            <mxPoint x="-125" y="1010" as="sourcePoint" />
            <mxPoint x="-125" y="880" as="targetPoint" />
          </mxGeometry>
        </mxCell>
        <mxCell id="sBDTYE3ng_ILYUom7Yl2-33" value="" style="endArrow=none;html=1;rounded=0;fontSize=25;entryX=0.5;entryY=1;entryDx=0;entryDy=0;exitX=0.5;exitY=0;exitDx=0;exitDy=0;" edge="1" parent="1" source="sBDTYE3ng_ILYUom7Yl2-36" target="sBDTYE3ng_ILYUom7Yl2-5">
          <mxGeometry width="50" height="50" relative="1" as="geometry">
            <mxPoint x="600" y="710" as="sourcePoint" />
            <mxPoint x="650" y="660" as="targetPoint" />
          </mxGeometry>
        </mxCell>
        <mxCell id="sBDTYE3ng_ILYUom7Yl2-35" value="" style="endArrow=classic;html=1;rounded=0;fontSize=25;exitX=1;exitY=0.5;exitDx=0;exitDy=0;entryX=0;entryY=0.5;entryDx=0;entryDy=0;" edge="1" parent="1" source="sBDTYE3ng_ILYUom7Yl2-2" target="sBDTYE3ng_ILYUom7Yl2-5">
          <mxGeometry width="50" height="50" relative="1" as="geometry">
            <mxPoint x="450" y="530" as="sourcePoint" />
            <mxPoint x="500" y="480" as="targetPoint" />
          </mxGeometry>
        </mxCell>
        <mxCell id="sBDTYE3ng_ILYUom7Yl2-36" value="&lt;span style=&quot;font-size: 25px;&quot;&gt;Create events&lt;/span&gt;" style="rounded=1;whiteSpace=wrap;html=1;fillColor=#d5e8d4;strokeColor=#82b366;" vertex="1" parent="1">
          <mxGeometry x="970" y="720" width="250" height="150" as="geometry" />
        </mxCell>
        <mxCell id="sBDTYE3ng_ILYUom7Yl2-37" value="" style="endArrow=none;html=1;rounded=0;fontSize=25;entryX=0.5;entryY=1;entryDx=0;entryDy=0;" edge="1" parent="1" source="sBDTYE3ng_ILYUom7Yl2-7" target="sBDTYE3ng_ILYUom7Yl2-36">
          <mxGeometry width="50" height="50" relative="1" as="geometry">
            <mxPoint x="855" y="730" as="sourcePoint" />
            <mxPoint x="850" y="870" as="targetPoint" />
          </mxGeometry>
        </mxCell>
        <mxCell id="sBDTYE3ng_ILYUom7Yl2-38" value="" style="endArrow=none;html=1;rounded=0;fontSize=25;entryX=0.5;entryY=1;entryDx=0;entryDy=0;" edge="1" parent="1" source="sBDTYE3ng_ILYUom7Yl2-8" target="sBDTYE3ng_ILYUom7Yl2-7">
          <mxGeometry width="50" height="50" relative="1" as="geometry">
            <mxPoint x="855" y="1000" as="sourcePoint" />
            <mxPoint x="855" y="880" as="targetPoint" />
          </mxGeometry>
        </mxCell>
        <mxCell id="sBDTYE3ng_ILYUom7Yl2-39" value="" style="endArrow=none;html=1;rounded=0;fontSize=25;entryX=0.5;entryY=1;entryDx=0;entryDy=0;exitX=0.5;exitY=0;exitDx=0;exitDy=0;" edge="1" parent="1" source="sBDTYE3ng_ILYUom7Yl2-16" target="sBDTYE3ng_ILYUom7Yl2-6">
          <mxGeometry width="50" height="50" relative="1" as="geometry">
            <mxPoint x="1660" y="580" as="sourcePoint" />
            <mxPoint x="1710" y="530" as="targetPoint" />
          </mxGeometry>
        </mxCell>
        <mxCell id="sBDTYE3ng_ILYUom7Yl2-40" value="" style="endArrow=none;html=1;rounded=0;fontSize=25;entryX=1;entryY=1;entryDx=0;entryDy=0;exitX=0.5;exitY=0;exitDx=0;exitDy=0;" edge="1" parent="1" source="sBDTYE3ng_ILYUom7Yl2-9" target="sBDTYE3ng_ILYUom7Yl2-6">
          <mxGeometry width="50" height="50" relative="1" as="geometry">
            <mxPoint x="1690" y="540" as="sourcePoint" />
            <mxPoint x="1740" y="490" as="targetPoint" />
          </mxGeometry>
        </mxCell>
        <mxCell id="sBDTYE3ng_ILYUom7Yl2-41" value="" style="endArrow=none;html=1;rounded=0;fontSize=25;entryX=0.5;entryY=0;entryDx=0;entryDy=0;exitX=1;exitY=0.5;exitDx=0;exitDy=0;" edge="1" parent="1" source="sBDTYE3ng_ILYUom7Yl2-6" target="sBDTYE3ng_ILYUom7Yl2-10">
          <mxGeometry width="50" height="50" relative="1" as="geometry">
            <mxPoint x="1530" y="500" as="sourcePoint" />
            <mxPoint x="1580" y="450" as="targetPoint" />
          </mxGeometry>
        </mxCell>
        <mxCell id="sBDTYE3ng_ILYUom7Yl2-42" value="" style="endArrow=none;html=1;rounded=0;fontSize=25;exitX=1;exitY=0.25;exitDx=0;exitDy=0;entryX=0;entryY=0;entryDx=0;entryDy=0;" edge="1" parent="1" source="sBDTYE3ng_ILYUom7Yl2-6" target="sBDTYE3ng_ILYUom7Yl2-11">
          <mxGeometry width="50" height="50" relative="1" as="geometry">
            <mxPoint x="1910" y="490" as="sourcePoint" />
            <mxPoint x="1960" y="440" as="targetPoint" />
          </mxGeometry>
        </mxCell>
        <mxCell id="sBDTYE3ng_ILYUom7Yl2-43" value="" style="endArrow=none;html=1;rounded=0;fontSize=25;entryX=0.5;entryY=1;entryDx=0;entryDy=0;exitX=0.5;exitY=0;exitDx=0;exitDy=0;" edge="1" parent="1" source="sBDTYE3ng_ILYUom7Yl2-13" target="sBDTYE3ng_ILYUom7Yl2-11">
          <mxGeometry width="50" height="50" relative="1" as="geometry">
            <mxPoint x="3010" y="580" as="sourcePoint" />
            <mxPoint x="3060" y="530" as="targetPoint" />
          </mxGeometry>
        </mxCell>
        <mxCell id="sBDTYE3ng_ILYUom7Yl2-44" value="" style="endArrow=none;html=1;rounded=0;fontSize=25;exitX=0;exitY=0;exitDx=0;exitDy=0;" edge="1" parent="1" source="sBDTYE3ng_ILYUom7Yl2-14" target="sBDTYE3ng_ILYUom7Yl2-11">
          <mxGeometry width="50" height="50" relative="1" as="geometry">
            <mxPoint x="2980" y="600" as="sourcePoint" />
            <mxPoint x="3030" y="550" as="targetPoint" />
          </mxGeometry>
        </mxCell>
        <mxCell id="sBDTYE3ng_ILYUom7Yl2-45" value="" style="endArrow=none;html=1;rounded=0;fontSize=25;entryX=0.5;entryY=1;entryDx=0;entryDy=0;exitX=0.5;exitY=0;exitDx=0;exitDy=0;" edge="1" parent="1" source="sBDTYE3ng_ILYUom7Yl2-18" target="sBDTYE3ng_ILYUom7Yl2-13">
          <mxGeometry width="50" height="50" relative="1" as="geometry">
            <mxPoint x="2630" y="1190" as="sourcePoint" />
            <mxPoint x="2680" y="1140" as="targetPoint" />
          </mxGeometry>
        </mxCell>
        <mxCell id="sBDTYE3ng_ILYUom7Yl2-46" value="" style="endArrow=none;html=1;rounded=0;fontSize=25;entryX=0.25;entryY=1;entryDx=0;entryDy=0;exitX=0.75;exitY=0;exitDx=0;exitDy=0;" edge="1" parent="1" source="sBDTYE3ng_ILYUom7Yl2-20" target="sBDTYE3ng_ILYUom7Yl2-13">
          <mxGeometry width="50" height="50" relative="1" as="geometry">
            <mxPoint x="2420" y="1210" as="sourcePoint" />
            <mxPoint x="2470" y="1160" as="targetPoint" />
          </mxGeometry>
        </mxCell>
        <mxCell id="sBDTYE3ng_ILYUom7Yl2-47" value="" style="endArrow=none;html=1;rounded=0;fontSize=25;entryX=0.5;entryY=1;entryDx=0;entryDy=0;exitX=0.5;exitY=0;exitDx=0;exitDy=0;" edge="1" parent="1" source="sBDTYE3ng_ILYUom7Yl2-19" target="sBDTYE3ng_ILYUom7Yl2-18">
          <mxGeometry width="50" height="50" relative="1" as="geometry">
            <mxPoint x="2320" y="1670" as="sourcePoint" />
            <mxPoint x="2370" y="1620" as="targetPoint" />
          </mxGeometry>
        </mxCell>
        <mxCell id="sBDTYE3ng_ILYUom7Yl2-48" value="" style="endArrow=none;html=1;rounded=0;fontSize=25;entryX=0.5;entryY=1;entryDx=0;entryDy=0;exitX=0.5;exitY=0;exitDx=0;exitDy=0;" edge="1" parent="1" source="sBDTYE3ng_ILYUom7Yl2-15" target="sBDTYE3ng_ILYUom7Yl2-19">
          <mxGeometry width="50" height="50" relative="1" as="geometry">
            <mxPoint x="2460" y="1820" as="sourcePoint" />
            <mxPoint x="2510" y="1770" as="targetPoint" />
          </mxGeometry>
        </mxCell>
        <mxCell id="sBDTYE3ng_ILYUom7Yl2-49" value="" style="endArrow=none;html=1;rounded=0;fontSize=25;exitX=0.5;exitY=0;exitDx=0;exitDy=0;entryX=0.5;entryY=1;entryDx=0;entryDy=0;" edge="1" parent="1" source="sBDTYE3ng_ILYUom7Yl2-21" target="sBDTYE3ng_ILYUom7Yl2-19">
          <mxGeometry width="50" height="50" relative="1" as="geometry">
            <mxPoint x="2690" y="1710" as="sourcePoint" />
            <mxPoint x="2660" y="1640" as="targetPoint" />
          </mxGeometry>
        </mxCell>
        <mxCell id="sBDTYE3ng_ILYUom7Yl2-50" value="" style="endArrow=none;html=1;rounded=0;fontSize=25;entryX=0.5;entryY=1;entryDx=0;entryDy=0;exitX=0.5;exitY=0;exitDx=0;exitDy=0;" edge="1" parent="1" source="sBDTYE3ng_ILYUom7Yl2-58" target="sBDTYE3ng_ILYUom7Yl2-14">
          <mxGeometry width="50" height="50" relative="1" as="geometry">
            <mxPoint x="3120" y="1260" as="sourcePoint" />
            <mxPoint x="3170" y="1210" as="targetPoint" />
          </mxGeometry>
        </mxCell>
        <mxCell id="sBDTYE3ng_ILYUom7Yl2-51" value="" style="endArrow=none;html=1;rounded=0;fontSize=25;entryX=0.5;entryY=1;entryDx=0;entryDy=0;exitX=0.5;exitY=0;exitDx=0;exitDy=0;" edge="1" parent="1" source="sBDTYE3ng_ILYUom7Yl2-23" target="sBDTYE3ng_ILYUom7Yl2-22">
          <mxGeometry width="50" height="50" relative="1" as="geometry">
            <mxPoint x="3170" y="1750" as="sourcePoint" />
            <mxPoint x="3220" y="1700" as="targetPoint" />
          </mxGeometry>
        </mxCell>
        <mxCell id="sBDTYE3ng_ILYUom7Yl2-52" value="" style="endArrow=none;html=1;rounded=0;fontSize=25;entryX=1;entryY=1;entryDx=0;entryDy=0;exitX=0.25;exitY=0;exitDx=0;exitDy=0;" edge="1" parent="1" source="sBDTYE3ng_ILYUom7Yl2-24" target="sBDTYE3ng_ILYUom7Yl2-22">
          <mxGeometry width="50" height="50" relative="1" as="geometry">
            <mxPoint x="3480" y="1630" as="sourcePoint" />
            <mxPoint x="3530" y="1580" as="targetPoint" />
          </mxGeometry>
        </mxCell>
        <mxCell id="sBDTYE3ng_ILYUom7Yl2-53" value="" style="endArrow=classic;html=1;rounded=0;fontSize=25;exitX=1;exitY=0.5;exitDx=0;exitDy=0;entryX=0;entryY=0.5;entryDx=0;entryDy=0;" edge="1" parent="1" source="sBDTYE3ng_ILYUom7Yl2-5" target="sBDTYE3ng_ILYUom7Yl2-6">
          <mxGeometry width="50" height="50" relative="1" as="geometry">
            <mxPoint x="1070" y="490" as="sourcePoint" />
            <mxPoint x="1120" y="440" as="targetPoint" />
          </mxGeometry>
        </mxCell>
        <mxCell id="sBDTYE3ng_ILYUom7Yl2-58" value="&lt;span style=&quot;font-size: 25px;&quot;&gt;Create name&lt;/span&gt;" style="rounded=1;whiteSpace=wrap;html=1;fillColor=#fff2cc;strokeColor=#d6b656;" vertex="1" parent="1">
          <mxGeometry x="2820" y="1290" width="250" height="150" as="geometry" />
        </mxCell>
        <mxCell id="sBDTYE3ng_ILYUom7Yl2-59" value="" style="endArrow=none;html=1;rounded=0;fontSize=25;entryX=0.5;entryY=1;entryDx=0;entryDy=0;exitX=0.5;exitY=0;exitDx=0;exitDy=0;" edge="1" parent="1" source="sBDTYE3ng_ILYUom7Yl2-22" target="sBDTYE3ng_ILYUom7Yl2-58">
          <mxGeometry width="50" height="50" relative="1" as="geometry">
            <mxPoint x="2955" y="1300" as="sourcePoint" />
            <mxPoint x="2955" y="1180" as="targetPoint" />
          </mxGeometry>
        </mxCell>
      </root>
    </mxGraphModel>
  </diagram>
</mxfile>
